<svg
							width="129"
							height="32"
							viewBox="0 0 129 32"
							fill="none"
							xmlns="http://www.w3.org/2000/svg">
							<path
								d="M20.7094 2.67658C23.0898 4.01825 24.9573 5.87928 26.3141 8.25967C27.6702 10.6401 28.3483 13.3306 28.3483 16.3314C28.3483 19.3328 27.6702 22.0227 26.3141 24.4031C24.9573 26.7834 23.0898 28.6445 20.7094 29.9862C18.329 31.3278 15.6385 31.9987 12.6377 31.9987C9.95436 31.9987 7.53719 31.537 5.38834 30.6137C3.23878 29.6904 1.44266 28.3487 0 26.5887L4.45782 22.4338C6.59296 24.8294 9.20346 26.026 12.2915 26.026C14.5132 26.026 16.3958 25.3769 17.9395 24.0785C19.4824 22.7801 20.4858 21.0344 20.9474 18.8416H8.65597V13.4749H20.8609C20.3697 11.3975 19.3605 9.7384 17.8313 8.49771C16.3014 7.25775 14.4555 6.63668 12.2915 6.63668C9.20346 6.63668 6.59296 7.83409 4.45782 10.2289L0 6.07404C1.44266 4.31472 3.23878 2.97304 5.38834 2.04902C7.53719 1.12571 9.95436 0.664062 12.6377 0.664062C15.6385 0.664063 18.329 1.3349 20.7094 2.67658Z"
								fill="white" />
							<path
								d="M45.5732 19.2707H40.7259V31.4756H33.7578V1.17969H40.7259V13.4279H45.7463L53.7098 1.17969H61.1107L51.1996 15.8083L61.4136 31.4756H53.4501L45.5732 19.2707Z"
								fill="white" />
							<path
								d="M122.502 2.52136C124.478 3.41581 126 4.68535 127.068 6.32999C128.135 7.97462 128.669 9.92222 128.669 12.1728C128.669 14.3952 128.135 16.3348 127.068 17.9939C126 19.6537 124.478 20.9225 122.502 21.8025C120.525 22.6833 118.196 23.1226 115.512 23.1226H109.41V31.4756H102.398V1.17969H115.512C118.196 1.17969 120.525 1.62691 122.502 2.52136ZM119.927 16.0463C121.023 15.1374 121.571 13.8463 121.571 12.1728C121.571 10.4704 121.023 9.16482 119.927 8.25594C118.83 7.34707 117.228 6.89263 115.123 6.89263H109.41V17.4096H115.123C117.228 17.4096 118.83 16.9552 119.927 16.0463Z"
								fill="white" />
							<path
								d="M74.0479 29.6938C74.0479 29.6938 80.5932 33.4852 88.5199 29.6556C96.4466 25.8261 97.4262 19.236 97.758 16.3629C98.0891 13.4891 97.0965 9.12509 95.1222 8.02866C93.1487 6.93152 92.5226 8.77019 92.5817 9.47565C92.6409 10.1811 94.1658 12.7404 94.706 15.2441C95.2463 17.7472 94.9095 22.1285 91.8488 25.6876C88.7882 29.2459 82.1376 32.5056 74.2231 29.3187L74.0479 29.6938Z"
								fill="#FFAB01" />
							<path
								d="M78.7275 29.491C78.7275 29.491 83.6477 30.6026 89.22 26.4903C94.793 22.3787 94.3068 14.4722 92.5381 14.0603C90.9952 13.7011 90.6114 15.0233 90.7766 16.0021C90.9411 16.981 91.4698 19.1767 91.0327 20.9468C90.5941 22.717 87.4073 29.5422 78.7275 29.491Z"
								fill="#FFAB01" />
							<path
								d="M82.001 28.134C82.001 28.134 84.5249 27.8873 87.4571 25.1029C90.3892 22.3186 89.2452 18.9449 87.8451 18.7805C86.4458 18.6167 86.4934 19.8459 86.6167 20.5795C86.7401 21.3131 87.491 22.7016 86.2741 24.8079C85.0572 26.9142 82.9957 27.6666 82.001 28.134Z"
								fill="#FFAB01" />
							<path
								d="M67.6537 31.6249C67.6537 31.6249 68.287 28.9444 69.5429 27.1411C69.5429 27.1411 71.9139 28.8867 75.6785 30.4362C75.6785 30.4362 75.2977 25.8788 68.8699 22.5398C68.8699 22.5398 67.0262 16.464 71.7155 14.7955C74.0043 13.9812 77.404 14.4904 81.1167 13.8917C79.7937 13.0506 77.8202 11.3736 77.4487 8.69164C75.5386 8.63105 68.0512 8.90299 67.0413 16.8016C67.0413 16.8016 66.589 8.00422 77.3881 7.88087C77.3729 6.75054 77.637 5.46152 78.3201 4.00588C78.3201 4.00588 75.8048 10.3384 82.3776 13.6436C85.9135 12.8205 89.6443 10.7849 92.9155 5.53294C92.9155 5.53294 86.7135 -1.82392 77.5742 0.4288C68.4364 2.68368 61.3204 12.3603 67.1055 23.3491C67.1055 23.3491 65.0288 27.5588 67.6537 31.6249ZM83.4177 6.27807C82.85 5.77314 82.8104 4.91476 83.3312 4.36222C83.852 3.80968 84.7341 3.77217 85.3026 4.27782C85.8717 4.78347 85.9099 5.64186 85.3891 6.19368C84.8698 6.74621 83.9868 6.78372 83.4177 6.27807Z"
								fill="white" />
							<path
								d="M70.5879 3.3577C70.5879 3.3577 66.8066 5.83403 65.0732 11.2152C65.0732 11.2152 63.6334 6.36493 65.972 2.82031L70.5879 3.3577Z"
								fill="white" />
							<path
								d="M78.6092 14.75L73.8109 14.8798L72.5312 17.4182C72.532 17.4182 75.2774 18.1662 78.6092 14.75Z"
								fill="white" />
						</svg>