<svg width="22" height="14" viewBox="0 0 22 14" fill="none" xmlns="http://www.w3.org/2000/svg">
<path d="M3.29464 9.98351C3.58029 10.4562 3.42868 11.0709 2.95601 11.3566C2.48333 11.6422 1.86859 11.4906 1.58294 11.018C1.17684 10.346 0.901314 9.7669 0.739301 9.3931C0.507313 8.85784 0.540973 8.25522 0.823594 7.75054C1.25486 6.98041 2.34432 5.20007 4.02335 3.60041C5.69852 2.00442 8.05564 0.500732 10.9997 0.500732C13.9438 0.500732 16.301 2.00442 17.9761 3.60041C19.6552 5.20007 20.7446 6.98041 21.1759 7.75054C21.4585 8.25522 21.4922 8.85784 21.2602 9.3931C21.0982 9.7669 20.8226 10.346 20.4165 11.018C20.1309 11.4906 19.5161 11.6422 19.0435 11.3566C18.5708 11.0709 18.4192 10.4562 18.7048 9.98351C19.0315 9.44304 19.2581 8.97562 19.3956 8.66516C18.9898 7.95007 18.0289 6.41305 16.5966 5.04843C15.1171 3.63889 13.2297 2.50073 10.9997 2.50073C8.76978 2.50073 6.8824 3.63889 5.40292 5.04844C3.9706 6.41305 3.00964 7.95007 2.60389 8.66516C2.74137 8.97562 2.96802 9.44304 3.29464 9.98351Z" fill="#969BA8"/>
<path fill-rule="evenodd" clip-rule="evenodd" d="M10.9997 4.00073C8.23831 4.00073 5.99974 6.23931 5.99974 9.00073C5.99974 11.7622 8.23831 14.0007 10.9997 14.0007C13.7612 14.0007 15.9997 11.7622 15.9997 9.00073C15.9997 6.23931 13.7612 4.00073 10.9997 4.00073ZM7.99974 9.00073C7.99974 7.34388 9.34288 6.00073 10.9997 6.00073C12.6566 6.00073 13.9997 7.34388 13.9997 9.00073C13.9997 10.6576 12.6566 12.0007 10.9997 12.0007C9.34288 12.0007 7.99974 10.6576 7.99974 9.00073Z" fill="#969BA8"/>
</svg>
