<svg width="20" height="20" viewBox="0 0 20 20" fill="none" xmlns="http://www.w3.org/2000/svg">
<path d="M13.6754 8.73818C14.0827 8.36517 14.1105 7.73261 13.7375 7.32533C13.3644 6.91805 12.7319 6.89027 12.3246 7.26328L8.63252 10.6447L7.6754 9.76812C7.26812 9.3951 6.63557 9.42288 6.26255 9.83016C5.88954 10.2374 5.91732 10.87 6.3246 11.243L7.95712 12.7382C8.33934 13.0883 8.9257 13.0883 9.30792 12.7382L13.6754 8.73818Z" fill="#6FBD15"/>
<path fill-rule="evenodd" clip-rule="evenodd" d="M10 0.000732422C4.47715 0.000732422 0 4.47789 0 10.0007C0 15.5236 4.47715 20.0007 10 20.0007C15.5228 20.0007 20 15.5236 20 10.0007C20 4.47789 15.5228 0.000732422 10 0.000732422ZM2 10.0007C2 5.58245 5.58172 2.00073 10 2.00073C14.4183 2.00073 18 5.58245 18 10.0007C18 14.419 14.4183 18.0007 10 18.0007C5.58172 18.0007 2 14.419 2 10.0007Z" fill="#6FBD15"/>
</svg>
