<svg width="22" height="18" viewBox="0 0 22 18" fill="none" xmlns="http://www.w3.org/2000/svg">
<path d="M19.7069 0.293626C20.0974 0.68415 20.0974 1.31731 19.7069 1.70784L3.70686 17.7078C3.31634 18.0984 2.68317 18.0984 2.29265 17.7078C1.90212 17.3173 1.90212 16.6841 2.29265 16.2936L18.2926 0.293626C18.6832 -0.0968987 19.3163 -0.0968987 19.7069 0.293626Z" fill="#969BA8"/>
<path d="M14.7993 2.37277C13.673 1.84236 12.403 1.50073 10.9997 1.50073C8.05564 1.50073 5.69852 3.00442 4.02335 4.60041C2.34432 6.20007 1.25486 7.98041 0.823594 8.75054C0.540973 9.25522 0.507313 9.85784 0.739301 10.3931C0.901314 10.7669 1.17684 11.346 1.58294 12.018C1.86859 12.4906 2.48333 12.6422 2.95601 12.3566C3.42868 12.0709 3.58029 11.4562 3.29464 10.9835C2.96802 10.443 2.74137 9.97562 2.60389 9.66516C3.00964 8.95007 3.9706 7.41305 5.40292 6.04844C6.8824 4.63889 8.76978 3.50073 10.9997 3.50073C11.8018 3.50073 12.5595 3.64797 13.2699 3.90212L14.7993 2.37277Z" fill="#969BA8"/>
<path d="M16.6903 6.13862C18.0708 7.48019 18.9987 8.96578 19.3956 9.66516C19.2581 9.97562 19.0315 10.443 18.7048 10.9835C18.4192 11.4562 18.5708 12.0709 19.0435 12.3566C19.5161 12.6422 20.1309 12.4906 20.4165 12.018C20.8226 11.346 21.0982 10.7669 21.2602 10.3931C21.4922 9.85784 21.4585 9.25522 21.1759 8.75054C20.7557 8.00024 19.7108 6.29105 18.1046 4.72428L16.6903 6.13862Z" fill="#969BA8"/>
<path d="M10.9998 5.00073C11.3632 5.00073 11.7175 5.0395 12.0589 5.11314L10.0011 7.17096C9.1476 7.47217 8.4712 8.14858 8.16999 9.00207L6.11216 11.0599C6.03853 10.7185 5.99976 10.3641 5.99976 10.0007C5.99976 7.23931 8.23833 5.00073 10.9998 5.00073Z" fill="#969BA8"/>
<path d="M10.9998 13.0007C10.6489 13.0007 10.3121 12.9405 9.99911 12.8298L8.49807 14.3308C9.23388 14.7569 10.0883 15.0007 10.9998 15.0007C13.7612 15.0007 15.9998 12.7622 15.9998 10.0007C15.9998 9.08932 15.7559 8.23486 15.3299 7.49905L13.8288 9.00009C13.9395 9.31305 13.9998 9.64986 13.9998 10.0007C13.9998 11.6576 12.6566 13.0007 10.9998 13.0007Z" fill="#969BA8"/>
</svg>
