<svg width="24" height="24" viewBox="0 0 24 24" fill="none" xmlns="http://www.w3.org/2000/svg">
<path d="M8.53407 3.52385C9.75108 3.14086 10.8338 2.8271 11.453 2.65152C11.8133 2.54939 12.1844 2.55403 12.5423 2.66431C14.2014 3.1757 19.2128 4.7588 21.1873 5.81636L17.6941 7.28715L8.53407 3.52385Z" fill="#70798E"/>
<path d="M6.34571 4.24644C4.89095 4.75369 3.51133 5.29975 2.71089 5.77902C2.73764 5.78691 2.76423 5.79637 2.79055 5.80745L11.9995 9.6848L15.7447 8.10792L6.34571 4.24644Z" fill="#70798E"/>
<path d="M1.89249 6.93934C1.65708 8.59801 1.83905 13.7889 1.94167 16.2194C1.97464 17.0003 2.46462 17.6847 3.19023 17.975L11.2568 21.2016C11.2645 21.2046 11.2722 21.2077 11.2799 21.2107C11.2601 21.1434 11.2495 21.0722 11.2495 20.9986V10.9966L2.20848 7.18991C2.07742 7.13473 1.97024 7.04666 1.89249 6.93934Z" fill="#70798E"/>
<path d="M12.7191 21.2107C12.7268 21.2077 12.7346 21.2047 12.7423 21.2016L20.8089 17.9749C21.5345 17.6847 22.0244 17.0003 22.0574 16.2195C22.1601 13.7889 22.3421 8.5978 22.1066 6.93924C22.0289 7.04661 21.9216 7.13471 21.7905 7.18991L12.7495 10.9966V20.9986C12.7495 21.0722 12.7389 21.1434 12.7191 21.2107Z" fill="#70798E"/>
</svg>
