<svg width="22" height="20" viewBox="0 0 22 20" fill="none" xmlns="http://www.w3.org/2000/svg">
<path d="M7.36707 1.52531C8.58409 1.14233 9.66679 0.828561 10.286 0.652987C10.6463 0.550851 11.0174 0.555491 11.3753 0.66578C13.0344 1.17716 18.0458 2.76026 20.0203 3.81782L16.5271 5.28861L7.36707 1.52531Z" fill="#203686"/>
<path d="M5.17871 2.24791C3.72396 2.75515 2.34433 3.30122 1.5439 3.78048C1.57065 3.78837 1.59724 3.79784 1.62356 3.80892L10.8325 7.68626L14.5777 6.10938L5.17871 2.24791Z" fill="#203686"/>
<path d="M0.725494 4.94081C0.490085 6.59947 0.672053 11.7903 0.774677 14.2209C0.807645 15.0017 1.29762 15.6862 2.02324 15.9764L10.0898 19.203C10.0975 19.2061 10.1052 19.2091 10.1129 19.2121C10.0931 19.1449 10.0825 19.0737 10.0825 19V8.99802L1.04148 5.19138C0.910426 5.1362 0.803243 5.04813 0.725494 4.94081Z" fill="#203686"/>
<path d="M11.5521 19.2122C11.5598 19.2092 11.5676 19.2061 11.5753 19.203L19.6419 15.9764C20.3675 15.6862 20.8575 15.0017 20.8904 14.2209C20.9931 11.7903 21.1751 6.59927 20.9396 4.94071C20.8619 5.04807 20.7547 5.13618 20.6236 5.19138L11.5825 8.99802V19C11.5825 19.0737 11.5719 19.1449 11.5521 19.2122Z" fill="#203686"/>
</svg>
