<svg width="21" height="15" viewBox="0 0 21 15" fill="none" xmlns="http://www.w3.org/2000/svg">
<path d="M20.3015 12.5245C20.2995 12.3696 20.1741 12.2444 20.0185 12.2444H19.2689L16.6725 4.45601L18.2913 3.24189C18.4955 3.08875 18.6024 2.85376 18.6007 2.61679C18.5996 2.45705 18.5492 2.29643 18.446 2.15891C18.2913 1.95252 18.0537 1.84559 17.8143 1.84955C17.6567 1.85197 17.4983 1.90258 17.363 2.00423L16.1724 2.89711C15.4259 2.38752 13.8993 1.46582 11.9481 1.11487C11.5914 -0.0781215 10.4013 0.00108849 10.4013 0.00108849C10.4013 0.00108849 9.21115 -0.0781216 8.85427 1.11509C6.90305 1.46604 5.37649 2.38774 4.62994 2.89733L3.43936 2.00445C3.29018 1.89267 3.11394 1.84295 2.941 1.85043C2.71833 1.86055 2.50072 1.96638 2.35638 2.15913C2.24439 2.30853 2.19444 2.48543 2.20258 2.65881C2.21292 2.88148 2.31854 3.09799 2.51106 3.24211L4.13025 4.45491L1.53369 12.2444H0.783617C0.628057 12.2444 0.50286 12.3696 0.50088 12.5245H0.5C0.5 12.5251 0.50022 12.526 0.50022 12.5269C0.50022 12.5273 0.5 12.5278 0.5 12.5282H0.50044C0.50396 13.7648 2.3357 15 4.62554 15C6.91758 15 8.75107 13.7623 8.75107 12.5247H8.74777C8.74579 12.3698 8.62038 12.2446 8.46504 12.2446H7.71738L5.1206 4.45513C5.14921 4.43114 6.71317 3.13254 8.91984 2.67752C9.33965 3.7407 10.4013 3.66259 10.4013 3.66259C10.4013 3.66259 11.4629 3.7407 11.8827 2.67774C14.0958 3.13408 15.6635 4.43973 15.682 4.45513L13.0852 12.2444H12.3373C12.1818 12.2444 12.0566 12.3696 12.0544 12.5245H12.0515C12.0515 13.7621 13.885 14.9998 16.177 14.9998C18.4691 14.9998 20.3026 13.7621 20.3026 12.5245H20.3015ZM6.84805 12.2444H2.40303L4.62554 5.57793L6.84805 12.2444ZM16.177 5.57793L18.3995 12.2444H13.9545L16.177 5.57793Z" fill="#70798E"/>
</svg>
