<svg width="25" height="24" viewBox="0 0 25 24" fill="none" xmlns="http://www.w3.org/2000/svg">
<g clip-path="url(#clip0_8685_36204)">
<path d="M4.93013 12.9695C5.46704 12.8005 5.94471 12.6621 6.2179 12.5846C6.37683 12.5396 6.54058 12.5416 6.69844 12.5903C7.4304 12.8159 9.64131 13.5143 10.5124 13.9809L8.97131 14.6298L4.93013 12.9695Z" fill="#70798E"/>
<path d="M3.96467 13.2883C3.32287 13.5121 2.71421 13.753 2.36108 13.9644C2.37288 13.9679 2.38461 13.9721 2.39622 13.977L6.45899 15.6875L8.11129 14.9919L3.96467 13.2883Z" fill="#70798E"/>
<path d="M2.00002 14.4763C1.89616 15.2081 1.97644 17.4982 2.02172 18.5705C2.03626 18.915 2.25243 19.2169 2.57255 19.345L6.13131 20.7685C6.13471 20.7698 6.13811 20.7712 6.14152 20.7725C6.13279 20.7428 6.1281 20.7114 6.1281 20.6789V16.2663L2.13942 14.5869C2.0816 14.5625 2.03432 14.5237 2.00002 14.4763Z" fill="#70798E"/>
<path d="M6.77644 20.7725C6.77987 20.7712 6.78329 20.7698 6.78671 20.7685L10.3455 19.345C10.6656 19.2169 10.8818 18.915 10.8963 18.5705C10.9416 17.4982 11.0219 15.208 10.918 14.4763C10.8837 14.5236 10.8364 14.5625 10.7786 14.5869L6.78987 16.2663V20.6789C6.78987 20.7114 6.78518 20.7428 6.77644 20.7725Z" fill="#70798E"/>
</g>
<path d="M16.6958 12.9695C17.2327 12.8005 17.7103 12.6621 17.9835 12.5846C18.1425 12.5396 18.3062 12.5416 18.4641 12.5903C19.196 12.8159 21.4069 13.5143 22.2781 13.9809L20.7369 14.6298L16.6958 12.9695Z" fill="#70798E"/>
<path d="M15.7303 13.2883C15.0885 13.5121 14.4798 13.753 14.1267 13.9644C14.1385 13.9679 14.1502 13.9721 14.1618 13.977L18.2246 15.6875L19.8769 14.9919L15.7303 13.2883Z" fill="#70798E"/>
<path d="M13.7656 14.4763C13.6618 15.2081 13.7421 17.4982 13.7873 18.5705C13.8019 18.915 14.0181 19.2169 14.3382 19.345L17.8969 20.7685C17.9003 20.7698 17.9037 20.7712 17.9071 20.7725C17.8984 20.7428 17.8937 20.7114 17.8937 20.6789V16.2663L13.905 14.5869C13.8472 14.5625 13.7999 14.5237 13.7656 14.4763Z" fill="#70798E"/>
<path d="M18.5421 20.7725C18.5455 20.7712 18.5489 20.7698 18.5523 20.7685L22.1111 19.345C22.4312 19.2169 22.6474 18.915 22.6619 18.5705C22.7072 17.4982 22.7875 15.208 22.6836 14.4763C22.6493 14.5236 22.602 14.5625 22.5442 14.5869L18.5555 16.2663V20.6789C18.5555 20.7114 18.5508 20.7428 18.5421 20.7725Z" fill="#70798E"/>
<g clip-path="url(#clip1_8685_36204)">
<path d="M10.8129 3.55542C11.3499 3.38645 11.8275 3.24802 12.1007 3.17056C12.2596 3.1255 12.4234 3.12755 12.5813 3.17621C13.3132 3.40182 15.5241 4.10024 16.3953 4.56682L14.8541 5.21569L10.8129 3.55542Z" fill="#70798E"/>
<path d="M9.84749 3.87421C9.20568 4.09799 8.59702 4.3389 8.24389 4.55034C8.25569 4.55382 8.26742 4.558 8.27903 4.56289L12.3418 6.27348L13.9941 5.5778L9.84749 3.87421Z" fill="#70798E"/>
<path d="M7.88283 5.06225C7.77897 5.79401 7.85925 8.08411 7.90453 9.15641C7.91907 9.50089 8.13524 9.80285 8.45536 9.9309L12.0141 11.3544C12.0175 11.3558 12.0209 11.3571 12.0243 11.3584C12.0156 11.3287 12.0109 11.2973 12.0109 11.2648V6.8522L8.02224 5.1728C7.96442 5.14845 7.91713 5.1096 7.88283 5.06225Z" fill="#70798E"/>
<path d="M12.6593 11.3584C12.6627 11.3571 12.6661 11.3558 12.6695 11.3544L16.2283 9.9309C16.5484 9.80285 16.7646 9.5009 16.7791 9.15642C16.8244 8.0841 16.9047 5.79392 16.8008 5.06221C16.7665 5.10957 16.7192 5.14844 16.6614 5.1728L12.6727 6.8522V11.2648C12.6727 11.2974 12.668 11.3288 12.6593 11.3584Z" fill="#70798E"/>
</g>
<defs>
<clipPath id="clip0_8685_36204">
<rect width="10.5882" height="10.5882" fill="white" transform="translate(1.16504 11.4141)"/>
</clipPath>
<clipPath id="clip1_8685_36204">
<rect width="10.5882" height="10.5882" fill="white" transform="translate(7.04785 2)"/>
</clipPath>
</defs>
</svg>
