<svg width="20" height="20" viewBox="0 0 20 20" fill="none" xmlns="http://www.w3.org/2000/svg">
<path fill-rule="evenodd" clip-rule="evenodd" d="M5.257 3.60106C5.11492 3.60075 4.97795 3.61683 4.84781 3.6474C4.66939 3.25417 4.43373 2.90138 4.16569 2.63334C3.71075 2.1784 2.99324 1.99902 2 1.99902V3.59902C2.60676 3.59902 2.95592 3.68631 3.03431 3.76471C3.33669 4.06709 3.6 4.68147 3.6 5.19902L3.60804 5.31216L4.39194 10.7994C3.08028 10.8675 2.06416 11.8861 2.00098 13.1594L2 13.999C2.07746 15.3142 3.0902 16.3259 4.35459 16.3977L4.53621 16.398C4.86539 17.3307 5.75465 17.999 6.8 17.999C7.84497 17.999 8.73397 17.3312 9.06344 16.399H10.9366C11.266 17.3312 12.155 17.999 13.2 17.999C14.5255 17.999 15.6 16.9245 15.6 15.599C15.6 14.2735 14.5255 13.199 13.2 13.199C12.155 13.199 11.266 13.8669 10.9366 14.799H9.06344C8.73397 13.8669 7.84497 13.199 6.8 13.199C5.75502 13.199 4.86603 13.8669 4.53656 14.799H4.4C3.99201 14.7745 3.62603 14.4089 3.59856 13.9511L3.6 13.199C3.62157 12.7841 3.98505 12.4206 4.43964 12.398L6.01895 12.3984L6.0304 12.399H14.0935L14.2116 12.3616C14.8181 12.1691 15.3037 11.7123 15.5336 11.121L15.6179 10.9542L15.8917 10.4117C16.175 9.85016 16.4583 9.28763 16.7344 8.73807C17.4106 7.39188 17.8358 6.53635 17.93 6.32627C18.4136 5.24738 17.4339 4.41699 16.4326 4.39931L5.257 3.60106ZM13.8158 10.8016H6.09051C6.03914 10.7873 5.99999 10.7438 5.99233 10.6896L5.20842 5.20215L16.3149 5.9975C16.1206 6.39382 15.7673 7.10169 15.3048 8.02243L15.2932 8.0455C15.0292 8.57105 14.7463 9.1328 14.4634 9.69362L14.1899 10.2354L14.0863 10.4406L14.0472 10.5313C14.0054 10.6478 13.9225 10.7434 13.8158 10.8016ZM13.2 16.392C13.6418 16.392 14 16.0338 14 15.592C14 15.1502 13.6418 14.792 13.2 14.792C12.7582 14.792 12.4 15.1502 12.4 15.592C12.4 16.0338 12.7582 16.392 13.2 16.392ZM7.59984 15.592C7.59984 16.0338 7.24167 16.392 6.79984 16.392C6.35801 16.392 5.99984 16.0338 5.99984 15.592C5.99984 15.1502 6.35801 14.792 6.79984 14.792C7.24167 14.792 7.59984 15.1502 7.59984 15.592Z" fill="currentColor"/>
</svg>
