<svg width="20" height="20" viewBox="0 0 20 20" fill="none" xmlns="http://www.w3.org/2000/svg">
<path fill-rule="evenodd" clip-rule="evenodd" d="M8.71488 2.27549C9.24845 2.54572 9.68282 2.862 9.9997 3.12792C10.3166 2.862 10.7509 2.54572 11.2845 2.27549C12.4936 1.66312 14.2338 1.28437 16.1908 2.27548C17.4409 2.90859 18.2865 3.86655 18.747 5.02963C19.2013 6.17708 19.263 7.47611 19.0443 8.79408C18.6718 11.0396 17.137 13.0433 15.5607 14.5871C13.9648 16.1502 12.2149 17.349 11.228 17.974C10.4726 18.4525 9.52686 18.4525 8.77146 17.9741C7.78455 17.349 6.0346 16.1502 4.43863 14.5871C2.86233 13.0433 1.32752 11.0396 0.95494 8.79408C0.736258 7.47611 0.797985 6.17708 1.25229 5.02963C1.71278 3.86655 2.55841 2.90859 3.80851 2.27548C5.76551 1.28437 7.50574 1.66312 8.71488 2.27549ZM9.36481 4.82075C9.52312 5.00697 9.75523 5.11432 9.99972 5.11432C10.2438 5.11432 10.4755 5.00733 10.6338 4.82171C10.634 4.8215 10.6342 4.82129 10.6343 4.82107C10.6345 4.82082 10.6348 4.82057 10.635 4.82032L10.6476 4.80612C10.6606 4.79173 10.6824 4.76803 10.7126 4.73678C10.7731 4.67415 10.8665 4.58206 10.9897 4.47436C11.2378 4.25732 11.5958 3.98604 12.0375 3.76234C12.905 3.32299 14.0721 3.0707 15.4378 3.76234C16.3294 4.21392 16.8888 4.86381 17.1974 5.64317C17.5121 6.43817 17.5835 7.41618 17.4002 8.52127C17.1156 10.2361 15.8928 11.929 14.3945 13.3964C12.9159 14.8446 11.2743 15.9719 10.3362 16.566C10.1253 16.6996 9.87412 16.6996 9.66323 16.566C8.72512 15.9719 7.08346 14.8446 5.60481 13.3964C4.10649 11.929 2.88365 10.2361 2.59913 8.52127C2.41577 7.41618 2.48716 6.43817 2.80192 5.64317C3.11048 4.86381 3.66986 4.21392 4.56152 3.76234C5.92721 3.0707 7.09433 3.32298 7.96186 3.76234C8.40356 3.98604 8.76164 4.25733 9.00974 4.47437C9.13286 4.58207 9.22634 4.67417 9.28686 4.7368C9.31705 4.76805 9.33884 4.79175 9.3518 4.80614L9.36481 4.82075Z" fill="currentColor"/>
</svg>
