<svg width="20" height="20" viewBox="0 0 20 20" fill="none" xmlns="http://www.w3.org/2000/svg">
<path fill-rule="evenodd" clip-rule="evenodd" d="M9.99967 19.1663C4.93706 19.1663 0.833008 15.0623 0.833008 9.99967C0.833008 4.93706 4.93706 0.833008 9.99967 0.833008C15.0623 0.833008 19.1663 4.93706 19.1663 9.99967C19.1663 15.0623 15.0623 19.1663 9.99967 19.1663ZM16.1659 14.2702C17.0069 13.0583 17.4997 11.5865 17.4997 9.99967C17.4997 5.85754 14.1418 2.49967 9.99967 2.49967C5.85754 2.49967 2.49967 5.85754 2.49967 9.99967C2.49967 11.5865 2.99249 13.0583 3.83343 14.2702C4.7713 13.0314 6.97518 12.4997 9.99967 12.4997C13.0242 12.4997 15.228 13.0314 16.1659 14.2702ZM14.9702 15.6161C14.7263 14.7391 12.9742 14.1663 9.99967 14.1663C7.02519 14.1663 5.27301 14.7391 5.02911 15.6161C6.35243 16.7882 8.09296 17.4997 9.99967 17.4997C11.9064 17.4997 13.6469 16.7882 14.9702 15.6161ZM9.99967 4.99967C7.98226 4.99967 6.66634 6.46281 6.66634 8.33301C6.66634 11.1892 8.13373 12.4997 9.99967 12.4997C11.8481 12.4997 13.333 11.2327 13.333 8.49967C13.333 6.60099 12.0115 4.99967 9.99967 4.99967ZM8.33301 8.33301C8.33301 10.2241 9.01485 10.833 9.99967 10.833C10.9811 10.833 11.6663 10.2483 11.6663 8.49967C11.6663 7.45836 11.0127 6.66634 9.99967 6.66634C8.94446 6.66634 8.33301 7.34619 8.33301 8.33301Z" fill="#203686"/>
</svg>
