<svg width="26" height="26" viewBox="0 0 26 26" fill="none" xmlns="http://www.w3.org/2000/svg">
<path fill-rule="evenodd" clip-rule="evenodd" d="M2.58677 7.7073C4.19329 6.04039 6.97024 4.44171 11.6457 4.51513C14.8942 4.56683 17.7938 5.51461 19.8719 6.45212C20.9124 6.92156 21.7522 7.39076 22.3331 7.74916C22.6234 7.92823 22.851 8.08089 23.0082 8.19348C23.0546 8.22666 23.0962 8.25738 23.1325 8.28507H23.4257V9.46761L23.4224 9.46759V11.9832C24.5362 12.4379 25.1762 13.3613 25.5288 14.1901C25.7455 14.6998 25.862 15.1895 25.92 15.5499C25.949 15.73 25.9644 15.8835 25.9696 15.9966C25.972 16.0504 25.9728 16.1074 25.969 16.1579C25.9688 16.1607 25.9685 16.1646 25.968 16.1692C25.9685 16.2908 25.9691 16.4594 25.9695 16.6549C25.9703 17.0559 25.9704 17.5711 25.9671 18.025C25.9648 18.339 25.8765 18.6051 25.7136 18.8144C25.5544 19.0189 25.3505 19.1352 25.1711 19.201C24.993 19.2663 24.823 19.2881 24.7033 19.295C24.6421 19.2985 24.5902 19.2984 24.5521 19.2972C24.5414 19.2969 24.5317 19.2965 24.5231 19.296L24.3841 19.3043C24.2753 19.3107 24.1164 19.3202 23.9164 19.3323C23.5163 19.3565 22.9517 19.3911 22.2939 19.4328C20.9779 19.516 19.29 19.6272 17.7993 19.7391C16.354 19.846 15.3565 20.112 14.3721 20.424C14.1809 20.4845 13.9888 20.5474 13.793 20.6114C12.979 20.8777 12.102 21.1646 10.967 21.3951C7.57436 22.0844 5.14335 21.4907 2.98826 20.3776C1.81298 19.7696 1.17973 18.948 0.843996 18.265C0.677325 17.926 0.585226 17.6241 0.534492 17.4032C0.509095 17.2926 0.493947 17.2018 0.484993 17.1362C0.480513 17.1033 0.477574 17.0767 0.475676 17.057L0.473544 17.0326L0.472945 17.0244L0.472742 17.0213L0.472662 17.02C0.472646 17.0197 0.472595 17.0189 0.936063 16.9914L0.472595 17.0189L0.471777 17.0052V12.6234H0.472808C0.432286 12.2038 0.452178 11.8435 0.485877 11.5751C0.505612 11.4179 0.530194 11.2913 0.55059 11.2016C0.560795 11.1567 0.569977 11.1209 0.577021 11.095C0.580504 11.0822 0.583468 11.0719 0.585778 11.064L0.588773 11.0522C0.592758 11.0368 0.598454 11.0155 0.606055 10.9888C0.621253 10.9352 0.644081 10.8597 0.67608 10.7652C0.740048 10.5765 0.840855 10.3118 0.990927 9.99704C1.2909 9.36779 1.78939 8.53466 2.58677 7.7073ZM1.4853 11.2944L1.48164 11.3099L1.47712 11.3243C1.47705 11.3245 1.47695 11.3249 1.47683 11.3253L1.47296 11.339C1.46919 11.3529 1.46322 11.3759 1.45606 11.4074C1.44174 11.4704 1.42278 11.5668 1.40722 11.6908C1.37604 11.9391 1.35899 12.2943 1.41815 12.7108C1.42068 12.7286 1.42334 12.7464 1.42614 12.7644L6.72701 6.16229C5.14788 6.72441 4.03481 7.54294 3.25537 8.35167C2.53989 9.09406 2.09466 9.83962 1.82913 10.3966C1.69645 10.6749 1.60906 10.9053 1.55552 11.0633C1.52877 11.1422 1.51051 11.203 1.49932 11.2424C1.49372 11.2621 1.48989 11.2765 1.48765 11.2851L1.4853 11.2944C1.48532 11.2943 1.48525 11.2946 1.4853 11.2944ZM8.25971 5.7365L1.75373 13.8396C2.02165 14.4161 2.46983 15.0338 3.2076 15.6204C3.52157 15.8701 3.85065 16.0953 4.18997 16.2962L7.23045 12.3404C7.38671 12.1371 7.67819 12.099 7.8815 12.2553C8.0848 12.4115 8.12294 12.703 7.96668 12.9063L5.025 16.7336C6.454 17.3903 7.98688 17.6504 9.29962 17.5249L13.1047 12.1816C12.9676 12.1471 12.8124 12.0967 12.6549 12.0223C12.4077 11.9056 12.1409 11.7234 11.9364 11.4393C11.7282 11.1501 11.6043 10.7825 11.6064 10.3333C11.6084 9.8883 11.7293 9.52506 11.9336 9.23988C12.135 8.9589 12.3971 8.78169 12.6405 8.67039C12.8827 8.55967 13.1185 8.50843 13.2894 8.48406C13.376 8.47171 13.4491 8.46583 13.5022 8.46304C13.5288 8.46163 13.5507 8.461 13.567 8.46073L13.5872 8.46055L13.594 8.46058L13.5966 8.4606L13.5977 8.46061L16.2329 8.48163L17.6407 6.55993C16.3864 6.12229 14.957 5.7504 13.4178 5.56589L10.4889 9.37968C10.3327 9.58304 10.0412 9.62129 9.83785 9.46511C9.63449 9.30893 9.59624 9.01746 9.75242 8.8141L12.3216 5.46879C12.0933 5.4558 11.8631 5.44728 11.6311 5.44359M18.5446 6.89738L17.3773 8.49076L21.8241 8.52624C21.2746 8.18839 20.4779 7.74423 19.49 7.29854C19.1914 7.16382 18.8757 7.02916 18.5446 6.89738ZM22.4939 9.46018L13.5879 9.38913L13.5823 9.38918C13.5764 9.38927 13.5657 9.38955 13.5509 9.39033C13.5212 9.39189 13.4759 9.39542 13.4204 9.40334C13.3071 9.41949 13.1639 9.45215 13.0266 9.51489C12.8906 9.57706 12.7729 9.6629 12.6884 9.78075C12.607 9.89441 12.5362 10.0658 12.5349 10.3375C12.5337 10.6049 12.6045 10.778 12.69 10.8967C12.7792 11.0206 12.9052 11.1136 13.0513 11.1826C13.198 11.2519 13.3509 11.2901 13.4712 11.3103C13.5302 11.3202 13.5785 11.3253 13.6104 11.3279C13.6262 11.3292 13.6378 11.3299 13.6444 11.3302L13.6467 11.3303L13.7071 11.33C13.7523 11.3299 13.8188 11.3297 13.9043 11.3297C14.0754 11.3296 14.3227 11.3299 14.6283 11.3318C15.2393 11.3355 16.084 11.3452 17.0184 11.3691C18.8398 11.4156 21.032 11.5165 22.4939 11.7378V9.46018ZM14.1899 12.2585C14.3159 12.2588 14.461 12.2594 14.6226 12.2604C15.2293 12.2641 16.0678 12.2737 16.9947 12.2973C17.5182 12.3107 18.0675 12.3285 18.6177 12.3521L15.9562 16.0559C15.0689 16.2079 14.1347 16.4328 13.2382 16.6585C13.0257 16.712 12.8156 16.7655 12.6085 16.8182C11.89 17.0011 11.2086 17.1745 10.595 17.3067L14.1899 12.2585ZM17.2166 15.8932C17.2758 15.8886 17.3345 15.8846 17.3928 15.8811C18.6142 15.8091 20.6227 15.7472 22.3306 15.7102C23.1854 15.6917 23.9678 15.6794 24.5418 15.6751C24.7134 15.6739 24.8673 15.6733 24.9993 15.6736C24.9492 15.3728 24.8509 14.9688 24.6743 14.5536C24.3108 13.6991 23.6495 12.8606 22.4403 12.6692C21.702 12.5523 20.7398 12.4682 19.721 12.4079L17.2166 15.8932ZM25.0408 16.6022C24.9044 16.6018 24.7388 16.6023 24.5487 16.6037C23.9806 16.6079 23.2029 16.6201 22.3507 16.6386C20.6444 16.6755 18.6505 16.7371 17.4475 16.8081C16.2853 16.8766 14.875 17.2039 13.4649 17.559C13.2597 17.6107 13.0542 17.663 12.8494 17.7152C11.673 18.0149 10.5239 18.3076 9.61732 18.4236C7.43193 18.7033 4.72348 18.0121 2.62969 16.3473C2.10971 15.9338 1.70829 15.5011 1.40035 15.0685V16.9718C1.4012 16.9802 1.40268 16.9933 1.40505 17.0107C1.41055 17.051 1.42087 17.1142 1.4395 17.1953C1.47682 17.3578 1.54702 17.5903 1.67732 17.8554C1.9355 18.3806 2.43508 19.0459 3.41437 19.5526C5.39977 20.578 7.61624 21.1283 10.7821 20.4851C11.8597 20.2663 12.6779 19.9988 13.4873 19.7342C13.688 19.6687 13.8881 19.6032 14.0916 19.5388C15.1172 19.2137 16.1889 18.9272 17.7303 18.8131C19.2262 18.7008 20.9181 18.5894 22.2353 18.506C22.8941 18.4644 23.4595 18.4297 23.8603 18.4055C24.0607 18.3933 24.2199 18.3838 24.329 18.3773L24.4967 18.3674L24.5334 18.3653L24.5653 18.3684C24.5673 18.3685 24.5731 18.3689 24.5805 18.3691C24.5956 18.3695 24.6197 18.3697 24.6497 18.368C24.7124 18.3643 24.7857 18.3532 24.8514 18.3291C24.9157 18.3056 24.956 18.276 24.9808 18.244C25.002 18.2169 25.0375 18.156 25.0385 18.0183C25.0418 17.5686 25.0418 17.0568 25.041 16.6567C25.0409 16.6383 25.0409 16.6202 25.0408 16.6022ZM1.39935 16.9609C1.39931 16.9604 1.39932 16.9605 1.39935 16.9609V16.9609ZM8.25971 5.7365C9.23834 5.53397 10.3558 5.42357 11.6311 5.44359L8.25971 5.7365ZM8.88895 10.9294C8.91202 10.9294 8.93073 10.9107 8.93073 10.8877C8.93073 10.8646 8.91202 10.8459 8.88895 10.8459C8.86587 10.8459 8.84716 10.8646 8.84716 10.8877C8.84716 10.9107 8.86587 10.9294 8.88895 10.9294ZM8.00216 10.8877C8.00216 10.3979 8.3992 10.0009 8.88895 10.0009C9.37872 10.0009 9.77573 10.3979 9.77573 10.8877C9.77573 11.3774 9.37872 11.7744 8.88895 11.7744C8.3992 11.7744 8.00216 11.3774 8.00216 10.8877Z" fill="#203686"/>
</svg>
